<?xml version="1.0" encoding="UTF-8" standalone="no"?>
<!-- Created with Inkscape (http://www.inkscape.org/) -->

<svg
   width="167.64006mm"
   height="210.80983mm"
   viewBox="0 0 167.64006 210.80983"
   version="1.1"
   id="svg869"
   inkscape:version="1.1 (c68e22c387, 2021-05-23)"
   sodipodi:docname="test.svg"
   xmlns:inkscape="http://www.inkscape.org/namespaces/inkscape"
   xmlns:sodipodi="http://sodipodi.sourceforge.net/DTD/sodipodi-0.dtd"
   xmlns="http://www.w3.org/2000/svg"
   xmlns:svg="http://www.w3.org/2000/svg">
  <sodipodi:namedview
     id="namedview871"
     pagecolor="#ffffff"
     bordercolor="#666666"
     borderopacity="1.0"
     inkscape:pageshadow="2"
     inkscape:pageopacity="0.0"
     inkscape:pagecheckerboard="0"
     inkscape:document-units="mm"
     showgrid="false"
     fit-margin-top="0"
     fit-margin-left="0"
     fit-margin-right="0"
     fit-margin-bottom="0"
     inkscape:zoom="0.77771465"
     inkscape:cx="-381.88814"
     inkscape:cy="-46.289472"
     inkscape:window-width="2560"
     inkscape:window-height="1377"
     inkscape:window-x="0"
     inkscape:window-y="0"
     inkscape:window-maximized="1"
     inkscape:current-layer="layer1" />
  <defs
     id="defs866" />
  <g
     inkscape:label="Ebene 1"
     inkscape:groupmode="layer"
     id="layer1"
     transform="translate(-203.50011,-160.48)">
    <svg
       x="203.5"
       y="160.48"
       width="167.64"
       height="210.81"
       data-layer-type="icon"
       preserveAspectRatio="xMinYMin"
       version="1.1"
       viewBox="119.886 31.971 728.866 916.559"
       id="svg148">
      <path
         d="m 382.76,240.15 h -75.096 c 0,0 -5.696,195.42 92.513,352.62 h 74.039 C 392.763,498.71 356.416,360.85 382.76,240.15 Z"
         fill="#eef8f8"
         id="path2" />
      <path
         d="M 541.43,240.15 H 382.76 c -26.349,120.7 10.003,258.56 91.456,352.62 h 94.24 a 488.86,488.86 0 0 0 8.774,-14.62 c 29.872,-115.36 38.472,-248.02 -35.802,-338 z"
         fill="#d4eded"
         id="path4" />
      <path
         d="M 660.98,240.15 H 541.44 c 74.274,89.979 65.674,222.64 35.802,338 89.095,-154.43 83.742,-338 83.742,-338 z M 496.42,44.07 c 0,-6.681 -5.415,-12.099 -12.101,-12.099 -0.526,0 -1.027,0.088 -1.537,0.155 6.158,6.509 7.513,14.384 8.275,21.907 3.224,-2.165 5.363,-5.79 5.363,-9.963 z"
         fill="#acdee0"
         id="path6" />
      <path
         d="m 472.222,44.07 c 0,4.65 2.646,8.638 6.497,10.668 v 25.093 h 11.206 v -25.1 a 10.32,10.32 0 0 0 1.131,-0.697 c -0.762,-7.523 -2.117,-15.398 -8.275,-21.907 -5.941,0.761 -10.559,5.789 -10.559,11.943 z m 6.51,5.78 c 0.343,0.624 0.771,1.043 1.035,1.373 l 0.425,0.509 -0.55,-0.371 c -0.344,-0.246 -0.894,-0.55 -1.422,-1.071 -1.135,-0.948 -2.48,-2.653 -2.937,-4.829 -0.533,-2.161 -0.106,-4.437 0.438,-5.993 0.266,-0.79 0.56,-1.424 0.791,-1.871 0.231,-0.452 0.452,-0.759 0.424,-0.72 l 3.32,2.675 c 0,0 -0.548,0.419 -1.296,1.482 -0.704,1.005 -1.489,2.525 -1.555,4.213 -0.14,1.683 0.52,3.451 1.327,4.603 z"
         fill="#d4eded"
         id="path8" />
      <path
         d="m 440.05,102.53 c -20.47,27.155 -34.458,72.575 -36.307,124.81 h 39.161 C 421.79,189.785 423.448,141.93 440.05,102.53 Z"
         fill="#eef8f8"
         id="path10" />
      <path
         d="M 512.192,94.899 C 504.969,87.67 497.175,81.006 488.283,76.027 a 40.568,40.568 0 0 0 -3.966,-0.195 c -16.351,0 -31.556,9.835 -44.271,26.7 -16.602,39.396 -18.261,87.251 2.854,124.806 h 69.286 c 19.525,-41.549 32.981,-92.146 0.006,-132.439 z"
         fill="#d4eded"
         id="path12" />
      <path
         d="m 488.28,76.027 c 8.891,4.979 16.686,11.644 23.909,18.872 32.974,40.294 19.519,90.89 -0.005,132.44 H 564.89 C 562.005,145.298 529.132,79.999 488.28,76.029 Z"
         fill="#acdee0"
         id="path14" />
      <path
         d="m 459.77,180.95 h 49.103 v 14.59 H 459.77 Z"
         fill="#4d4d4d"
         opacity="0.4"
         id="path16" />
      <path
         d="m 459.77,180.02 h 49.103 v 14.59 H 459.77 Z"
         fill="#032e3e"
         id="path18" />
      <path
         d="m 469.9,129.44 c 0,5.597 -4.54,10.14 -10.135,10.14 -5.605,0 -10.14,-4.544 -10.14,-10.14 0,-5.604 4.535,-10.143 10.14,-10.143 5.595,0 10.135,4.539 10.135,10.143 z m 49.103,0 c 0,5.597 -4.536,10.14 -10.135,10.14 -5.599,0 -10.146,-4.544 -10.146,-10.14 0,-5.604 4.547,-10.143 10.146,-10.143 5.599,0 10.135,4.539 10.135,10.143 z"
         fill="#4d4d4d"
         opacity="0.4"
         id="path20" />
      <path
         d="m 469.9,128.78 c 0,5.601 -4.54,10.143 -10.135,10.143 -5.605,0 -10.14,-4.542 -10.14,-10.143 a 10.137,10.137 0 0 1 10.14,-10.139 c 5.595,0 10.135,4.54 10.135,10.139 z m 49.103,0 c 0,5.601 -4.536,10.143 -10.135,10.143 -5.599,0 -10.146,-4.542 -10.146,-10.143 0,-5.599 4.547,-10.139 10.146,-10.139 5.599,0 10.135,4.54 10.135,10.139 z"
         fill="#032e3e"
         id="path22" />
      <path
         d="m 508.872,124.323 a 1.913,1.913 0 0 1 -1.904,1.908 1.903,1.903 0 0 1 -1.909,-1.908 c 0,-1.05 0.846,-1.905 1.909,-1.905 1.042,0 1.904,0.855 1.904,1.905 z m -49.772,0 a 1.912,1.912 0 0 1 -1.912,1.908 1.907,1.907 0 0 1 0,-3.813 c 1.054,0 1.912,0.855 1.912,1.905 z"
         fill="#ffffff"
         id="path24" />
      <path
         d="m 662.41,456.42 c 9.228,6.157 11.826,16.739 15.734,26.972 -0.005,-0.655 0.028,-1.293 0,-1.946 -1.355,-29.152 -25.135,-51.729 -53.098,-50.43 -22.24,1.036 -40.393,16.868 -46.25,37.952 l 17.8,-0.829 c 19.933,-15.171 44.363,-22.441 65.814,-11.719 z"
         fill="#92d7e7"
         id="path26" />
      <path
         d="m 677.522,491.956 c 0.403,-2.802 0.65,-5.65 0.622,-8.564 -3.908,-10.233 -6.506,-20.815 -15.734,-26.972 -21.451,-10.723 -45.88,-3.452 -65.814,11.719 l 40.662,-1.892 1.59,34.128 -58.272,2.707 c 28.439,24.463 71.839,9.673 96.946,-11.126 z"
         fill="#65c8d0"
         id="path28" />
      <path
         d="m 580.58,503.08 -0.19,0.008 c 7.783,20.446 27.33,34.531 49.554,33.489 24.53,-1.131 44.044,-20.278 47.583,-44.624 -25.108,20.8 -68.508,35.59 -96.947,11.127 z"
         fill="#008ca1"
         id="path30" />
      <path
         d="m 746.746,270.229 -6.45,-2.829 c -20.051,-8.844 -41.675,-16.595 -66.099,-23.687 a 737.37,737.37 0 0 1 -0.577,19.904 c 24.732,-1.797 49.682,2.247 72.012,11.281 l 1.954,-4.302 c -0.274,-0.121 -0.56,-0.249 -0.84,-0.367 z"
         fill="#acdee0"
         id="path32" />
      <path
         d="m 670.42,309.52 c 15.919,5.079 30.701,10.6 44.044,16.484 l 6.658,2.923 8.18,-18.035 c -19.805,-7.917 -40.455,-14.214 -57.337,-19.379 a 783.92,783.92 0 0 1 -1.545,18.007 z"
         fill="#eef8f8"
         id="path34" />
      <path
         d="m 673.62,263.62 a 807.28,807.28 0 0 1 -1.657,27.9 c 16.882,5.165 37.532,11.462 57.337,19.379 l 16.333,-35.998 C 723.302,265.867 698.352,261.823 673.62,263.62 Z m 79.84,14.711 -16.266,35.847 c 30.986,13.296 58.255,30.888 63.311,54.853 l 22.61,-7.299 c -7.811,-38.092 -34.917,-67.04 -69.655,-83.401 z"
         fill="#d4eded"
         id="path36" />
      <path
         d="m 737.194,314.174 -8.242,18.189 c 24.032,10.639 45.696,21.613 54.055,40.948 0.185,0.409 0.308,0.815 0.459,1.218 l 17.039,-5.501 c -5.056,-23.966 -32.325,-41.559 -63.311,-54.854 z"
         fill="#eef8f8"
         id="path38" />
      <path
         d="m 841.79,347.86 c -17.683,-40.838 -54.397,-59.632 -86.391,-73.829 l -1.943,4.292 c 34.738,16.361 61.844,45.309 69.655,83.401 l 21.316,-6.876 c -0.79,-2.335 -1.624,-4.661 -2.637,-6.988 z M 689.17,482.13 a 67.828,67.828 0 0 1 -2.033,18.671 c 13.483,-3.973 26.58,-8.015 39.049,-12.08 15.812,-5.168 33.265,-10.893 50.366,-18.57 l -13.886,-15.815 c -24.121,10.727 -51.183,18.67 -73.496,27.794 z"
         fill="#acdee0"
         id="path40" />
      <path
         d="m 706.31,427.84 c -11.12,3.631 -22.783,7.234 -34.794,10.801 4.536,4.883 8.209,10.392 11.059,16.325 21.277,-4.169 44.889,-8.785 65.607,-17.131 l -16.378,-18.657 c -8.422,3.068 -17.022,5.893 -25.494,8.662 z"
         fill="#eef8f8"
         id="path42" />
      <path
         d="m 689.163,480.931 c 0.017,0.406 0,0.801 0.011,1.207 22.313,-9.124 49.374,-17.066 73.496,-27.795 l -14.491,-16.507 c -20.717,8.346 -44.33,12.962 -65.607,17.131 3.864,8.007 6.171,16.784 6.591,25.964 z"
         fill="#d4eded"
         id="path44" />
      <path
         d="m 794.78,400.91 c 4.424,-8.287 6.439,-15.991 6.557,-23.175 l -17.111,5.518 c -1.534,8.035 -9.239,15.815 -23.108,23.234 -6.573,3.502 -13.578,6.607 -20.779,9.46 l 16.042,18.29 c 16.186,-7.691 29.972,-18.156 38.399,-33.327 z"
         fill="#eef8f8"
         id="path46" />
      <path
         d="m 824.666,371.029 c -0.028,-0.271 -0.084,-0.521 -0.118,-0.787 l -23.215,7.495 c -0.118,7.184 -2.133,14.888 -6.557,23.175 -8.427,15.171 -22.212,25.636 -38.4,33.327 l 14.362,16.353 c 33.093,-16.191 58.446,-38.921 53.928,-79.563 z"
         fill="#d4eded"
         id="path48" />
      <path
         d="m 846.749,363.072 -22.201,7.17 c 0.034,0.266 0.089,0.515 0.118,0.787 4.519,40.642 -20.835,63.373 -53.927,79.563 l 13.864,15.787 c 2.24,-1.1 4.485,-2.217 6.691,-3.404 43.753,-23.378 64.257,-61.38 55.455,-99.903 z"
         fill="#acdee0"
         id="path50" />
      <path
         d="m 306.229,456.42 c -9.233,6.157 -11.82,16.739 -15.731,26.972 0.003,-0.655 -0.034,-1.293 0,-1.946 1.358,-29.152 25.132,-51.729 53.101,-50.43 22.233,1.036 40.383,16.868 46.23,37.952 l -17.794,-0.829 c -19.92,-15.171 -44.353,-22.441 -65.806,-11.719 z"
         fill="#92d7e7"
         id="path52" />
      <path
         d="m 291.118,491.956 c -0.405,-2.802 -0.654,-5.65 -0.62,-8.564 3.911,-10.233 6.498,-20.815 15.731,-26.972 21.454,-10.723 45.886,-3.452 65.806,11.719 l -40.645,-1.892 -1.594,34.128 58.26,2.707 c -28.441,24.463 -71.831,9.673 -96.938,-11.126 z"
         fill="#65c8d0"
         id="path54" />
      <path
         d="m 388.06,503.08 0.188,0.008 c -7.776,20.446 -27.317,34.531 -49.544,33.489 -24.529,-1.131 -44.037,-20.278 -47.581,-44.624 25.107,20.8 68.497,35.59 96.937,11.127 z"
         fill="#008ca1"
         id="path56" />
      <path
         d="m 221.892,270.229 6.455,-2.829 c 20.048,-8.844 41.681,-16.595 66.102,-23.687 0.088,6.113 0.271,12.793 0.57,19.904 -24.731,-1.797 -49.685,2.247 -72.018,11.281 l -1.949,-4.302 c 0.275,-0.121 0.564,-0.249 0.84,-0.367 z"
         fill="#eef8f8"
         id="path58" />
      <path
         d="m 298.233,309.523 c -15.93,5.079 -30.712,10.6 -44.051,16.484 l -6.665,2.923 -8.179,-18.035 c 19.809,-7.917 40.462,-14.214 57.331,-19.379 0.444,5.823 0.944,11.792 1.564,18.007 z"
         fill="#acdee0"
         id="path60" />
      <path
         d="m 295.02,263.62 c 0.355,8.63 0.902,18.003 1.65,27.9 -16.869,5.165 -37.522,11.462 -57.331,19.379 l -16.337,-35.998 c 22.332,-9.034 47.287,-13.078 72.018,-11.281 z m -79.842,14.711 16.267,35.847 c -30.99,13.296 -58.252,30.888 -63.313,54.853 l -22.61,-7.299 c 7.815,-38.092 34.927,-67.04 69.656,-83.401 z"
         fill="#d4eded"
         id="path62" />
      <path
         d="m 231.445,314.174 8.253,18.189 c -24.045,10.639 -45.71,21.613 -54.069,40.948 -0.176,0.409 -0.308,0.815 -0.448,1.218 l -17.048,-5.501 c 5.06,-23.966 32.321,-41.559 63.312,-54.854 z"
         fill="#acdee0"
         id="path64" />
      <path
         d="m 126.84,347.86 c 17.684,-40.838 54.398,-59.632 86.394,-73.829 l 1.939,4.292 c -34.73,16.361 -61.841,45.309 -69.655,83.401 l -21.309,-6.876 c 0.784,-2.335 1.624,-4.661 2.631,-6.988 z m 152.62,134.27 c -0.175,6.378 0.514,12.643 2.041,18.671 -13.482,-3.973 -26.583,-8.015 -39.045,-12.08 -15.823,-5.168 -33.269,-10.893 -50.374,-18.57 l 13.886,-15.815 c 24.122,10.727 51.182,18.67 73.492,27.794 z"
         fill="#eef8f8"
         id="path66" />
      <path
         d="m 262.33,427.84 c 11.119,3.631 22.781,7.234 34.787,10.801 -4.528,4.883 -8.204,10.392 -11.056,16.325 -21.282,-4.169 -44.884,-8.785 -65.6,-17.131 l 16.378,-18.657 c 8.415,3.068 17.014,5.893 25.491,8.662 z"
         fill="#acdee0"
         id="path68" />
      <path
         d="m 279.477,480.931 c -0.022,0.406 0,0.801 -0.015,1.207 -22.31,-9.124 -49.37,-17.066 -73.492,-27.795 l 14.495,-16.507 c 20.716,8.346 44.318,12.962 65.6,17.131 -3.857,8.007 -6.163,16.784 -6.588,25.964 z"
         fill="#d4eded"
         id="path70" />
      <path
         d="m 173.86,400.91 c -4.422,-8.287 -6.436,-15.991 -6.561,-23.175 l 17.116,5.518 c 1.526,8.035 9.236,15.815 23.111,23.234 6.569,3.502 13.563,6.607 20.785,9.46 l -16.05,18.29 C 196.074,426.546 182.29,416.081 173.86,400.91 Z"
         fill="#acdee0"
         id="path72" />
      <path
         d="m 143.973,371.029 c 0.035,-0.271 0.078,-0.521 0.119,-0.787 l 23.21,7.495 c 0.125,7.184 2.139,14.888 6.561,23.175 8.43,15.171 22.214,25.636 38.4,33.327 L 197.9,450.592 c -33.094,-16.191 -58.445,-38.921 -53.927,-79.563 z"
         fill="#d4eded"
         id="path74" />
      <path
         d="m 121.886,363.072 22.205,7.17 c -0.041,0.266 -0.084,0.515 -0.119,0.787 -4.517,40.642 20.834,63.373 53.927,79.563 l -13.856,15.787 c -2.246,-1.1 -4.485,-2.217 -6.702,-3.404 -43.737,-23.378 -64.247,-61.38 -55.455,-99.903 z"
         fill="#eef8f8"
         id="path76" />
      <path
         d="m 468.84,346.65 a 6.9400009,6.9400009 0 1 1 -13.88,0.007 6.9400009,6.9400009 0 0 1 13.88,-0.007 z m 22.419,0 a 6.937,6.937 0 0 1 -6.944,6.943 6.939,6.939 0 0 1 -6.938,-6.943 6.936,6.936 0 0 1 6.938,-6.935 6.936,6.936 0 0 1 6.944,6.935 z m 22.414,0 a 6.942,6.942 0 0 1 -6.937,6.943 6.944,6.944 0 0 1 -6.943,-6.943 c 0,-3.83 3.113,-6.935 6.943,-6.935 3.824,0.001 6.937,3.106 6.937,6.935 z m -44.833,22.423 a 6.938,6.938 0 0 1 -6.939,6.935 6.938,6.938 0 0 1 -6.939,-6.935 6.943,6.943 0 0 1 6.939,-6.943 6.943,6.943 0 0 1 6.939,6.943 z m 22.419,0 a 6.935,6.935 0 0 1 -6.944,6.935 6.937,6.937 0 0 1 -6.938,-6.935 6.941,6.941 0 1 1 13.882,0 z m 22.414,0 a 6.94,6.94 0 0 1 -13.88,0 6.947,6.947 0 0 1 6.943,-6.943 c 3.824,0 6.937,3.11 6.937,6.943 z m -44.833,22.411 a 6.943,6.943 0 0 1 -6.939,6.943 6.943,6.943 0 0 1 -6.939,-6.943 6.938,6.938 0 0 1 6.939,-6.935 6.938,6.938 0 0 1 6.939,6.935 z m 22.419,0 a 6.94,6.94 0 0 1 -6.944,6.943 6.943,6.943 0 0 1 -6.938,-6.943 6.936,6.936 0 0 1 6.938,-6.935 6.935,6.935 0 0 1 6.944,6.935 z m 22.414,0 c 0,3.833 -3.113,6.943 -6.937,6.943 a 6.948,6.948 0 0 1 -6.943,-6.943 6.94,6.94 0 0 1 13.88,0 z m -22.571,22.576 c 0,3.914 -3.18,7.089 -7.098,7.089 -3.918,0 -7.094,-3.175 -7.094,-7.089 a 7.096,7.096 0 1 1 14.192,0 z"
         fill="#032e3e"
         id="path78" />
      <path
         d="m 468.84,347.9 a 6.938,6.938 0 0 1 -6.939,6.935 6.938,6.938 0 1 1 0,-13.875 6.94,6.94 0 0 1 6.939,6.94 z m 22.419,0 a 6.935,6.935 0 0 1 -6.944,6.935 6.9375,6.9375 0 1 1 0,-13.875 6.938,6.938 0 0 1 6.944,6.94 z m 22.414,0 a 6.94,6.94 0 0 1 -13.88,0 6.944,6.944 0 0 1 6.943,-6.94 6.944,6.944 0 0 1 6.937,6.94 z"
         fill="#4d4d4d"
         id="path80" />
      <circle
         cx="461.89999"
         cy="370.31"
         r="6.9390001"
         fill="#4d4d4d"
         id="circle82" />
      <path
         d="m 491.26,370.31 a 6.938,6.938 0 0 1 -6.944,6.943 6.94,6.94 0 0 1 -6.938,-6.943 6.936,6.936 0 0 1 6.938,-6.937 6.934,6.934 0 0 1 6.944,6.937 z m 22.414,0 a 6.944,6.944 0 0 1 -6.937,6.943 6.946,6.946 0 0 1 -6.943,-6.943 6.94,6.94 0 0 1 13.88,0 z m -44.833,22.419 a 6.945,6.945 0 0 1 -6.939,6.943 6.945,6.945 0 0 1 -6.939,-6.943 6.938,6.938 0 0 1 6.939,-6.937 6.938,6.938 0 0 1 6.939,6.937 z m 22.419,0 a 6.942,6.942 0 1 1 -13.882,0 6.936,6.936 0 0 1 6.938,-6.937 6.936,6.936 0 0 1 6.944,6.937 z m 22.414,0 c 0,3.83 -3.113,6.943 -6.937,6.943 a 6.949,6.949 0 0 1 -6.943,-6.943 6.941,6.941 0 0 1 13.88,0 z"
         fill="#4d4d4d"
         id="path84" />
      <path
         d="m 491.1,415.3 c 0,3.911 -3.18,7.089 -7.098,7.089 a 7.094,7.094 0 0 1 0,-14.186 7.099,7.099 0 0 1 7.098,7.097 z"
         fill="#4d4d4d"
         opacity="0.5"
         id="path86" />
      <path
         d="m 403.41,602.76 a 390.3,390.3 0 0 0 -27.203,62.645 l 19.75,1.193 c 9.181,-22.795 21.449,-44.318 37.027,-63.837 H 403.41 Z"
         fill="#eef8f8"
         id="path88" />
      <path
         d="m 432.99,602.76 c -15.577,19.519 -27.845,41.043 -37.027,63.837 l 37.203,2.279 a 276.64,276.64 0 0 1 35.688,-66.116 z"
         fill="#d4eded"
         id="path90" />
      <path
         d="m 478.4,602.76 h -9.547 a 276.64,276.64 0 0 0 -35.688,66.116 l 9.75,0.588 c 8.669,-22.005 20.231,-44.402 35.485,-66.704 z"
         fill="#acdee0"
         id="path92" />
      <path
         d="m 373.07,675.19 c -8.199,26.938 -12.931,53.115 -15.237,77.903 l 18.084,-1.781 c 2.319,-25.667 7.692,-50.92 16.33,-74.958 z"
         fill="#eef8f8"
         id="path94" />
      <path
         d="m 392.25,676.35 c -8.638,24.038 -14.011,49.291 -16.33,74.958 l 39.291,-3.875 c 2.297,-23.383 6.977,-46.429 14.466,-68.787 z"
         fill="#d4eded"
         id="path96" />
      <path
         d="m 439.28,679.23 -9.611,-0.577 c -7.489,22.358 -12.169,45.405 -14.466,68.787 l 7.835,-0.784 c 2.852,-21.563 7.957,-44.228 16.242,-67.426 z"
         fill="#acdee0"
         id="path98" />
      <path
         d="m 375.14,761.39 -18.118,1.797 c -1.989,29.206 -0.661,56.256 2.252,80.042 l 20.199,-3.572 c -4.33,-25.762 -5.898,-52.146 -4.333,-78.267 z"
         fill="#eef8f8"
         id="path100" />
      <path
         d="m 414.39,757.53 -39.251,3.858 c -1.565,26.121 0.003,52.505 4.334,78.267 l 37.029,-6.562 c -2.972,-25.23 -3.845,-50.545 -2.112,-75.563 z"
         fill="#d4eded"
         id="path102" />
      <path
         d="m 421.859,756.793 -7.469,0.739 c -1.733,25.018 -0.859,50.332 2.112,75.562 l 5.861,-1.042 c -2.491,-22.205 -3.306,-47.71 -0.504,-75.259 z"
         fill="#acdee0"
         id="path104" />
      <path
         d="m 360.6,853.12 c 3.743,25.673 9.181,47.023 13.909,62.421 h 26.66 c -8.708,-21.02 -15.405,-43.26 -19.894,-66.088 z"
         fill="#eef8f8"
         id="path106" />
      <path
         d="m 381.27,849.45 c 4.489,22.828 11.186,45.069 19.894,66.088 h 31.97 c -6.69,-23.769 -11.967,-48.087 -15.373,-72.555 z"
         fill="#d4eded"
         id="path108" />
      <path
         d="m 423.61,841.95 -5.843,1.036 c 3.406,24.469 8.683,48.787 15.373,72.555 h 9.13 c -2.719,-6.651 -13.127,-33.992 -18.66,-73.591 z"
         fill="#acdee0"
         id="path110" />
      <path
         d="m 344.49,883.12 c -0.495,-2.341 -0.998,-4.664 -1.457,-7.038 l -35.888,24.766 -59.684,47.683 h 34.627 c 21.584,-20.847 43.741,-42.208 62.402,-65.411 z"
         fill="#92d7e7"
         id="path112" />
      <path
         d="m 479.12,948.53 -27.922,-20.169 h -37.746 c 16.451,5.493 31.812,13.164 47.503,20.169 z"
         fill="#008ca1"
         id="path114" />
      <path
         d="M 413.45,928.36 H 356.5 l -2.781,-9.054 c -3.582,-11.697 -6.624,-23.814 -9.222,-36.188 -18.661,23.203 -40.817,44.565 -62.403,65.411 h 178.86 c -15.69,-7.005 -31.052,-14.676 -47.503,-20.169 z"
         fill="#65c8d0"
         id="path116" />
      <path
         d="m 565.22,602.76 a 390.86,390.86 0 0 1 27.207,62.645 l -19.76,1.193 c -9.183,-22.795 -21.451,-44.318 -37.034,-63.837 h 29.587 z"
         fill="#acdee0"
         id="path118" />
      <path
         d="m 535.64,602.76 c 15.583,19.519 27.851,41.043 37.034,63.837 l -37.196,2.279 A 276.8,276.8 0 0 0 499.777,602.76 Z"
         fill="#d4eded"
         id="path120" />
      <path
         d="m 490.243,602.763 h 9.53 a 276.8,276.8 0 0 1 35.701,66.116 l -9.748,0.588 c -8.674,-22.005 -20.236,-44.402 -35.483,-66.704 z"
         fill="#eef8f8"
         id="path122" />
      <path
         d="m 595.57,675.19 c 8.197,26.938 12.929,53.115 15.236,77.903 l -18.091,-1.781 c -2.312,-25.667 -7.693,-50.92 -16.333,-74.958 z"
         fill="#acdee0"
         id="path124" />
      <path
         d="m 576.38,676.35 c 8.64,24.038 14.021,49.291 16.333,74.958 l -39.29,-3.875 c -2.307,-23.383 -6.977,-46.429 -14.463,-68.787 z"
         fill="#d4eded"
         id="path126" />
      <path
         d="m 529.34,679.23 9.62,-0.577 c 7.486,22.358 12.156,45.405 14.463,68.787 l -7.833,-0.784 c -2.851,-21.563 -7.958,-44.228 -16.25,-67.426 z"
         fill="#eef8f8"
         id="path128" />
      <path
         d="m 593.494,761.39 18.125,1.797 c 1.982,29.206 0.661,56.256 -2.251,80.042 l -20.208,-3.572 c 4.328,-25.762 5.896,-52.146 4.334,-78.267 z"
         fill="#acdee0"
         id="path130" />
      <path
         d="m 554.24,757.53 39.251,3.858 c 1.562,26.121 -0.006,52.505 -4.334,78.267 l -37.023,-6.562 c 2.963,-25.23 3.836,-50.545 2.106,-75.563 z"
         fill="#d4eded"
         id="path132" />
      <path
         d="m 546.773,756.793 7.47,0.739 c 1.73,25.018 0.857,50.332 -2.105,75.562 l -5.868,-1.042 c 2.491,-22.205 3.309,-47.71 0.503,-75.259 z"
         fill="#eef8f8"
         id="path134" />
      <path
         d="m 608.04,853.12 c -3.746,25.673 -9.183,47.023 -13.909,62.421 h -26.658 c 8.696,-21.02 15.398,-43.26 19.889,-66.088 z"
         fill="#acdee0"
         id="path136" />
      <path
         d="m 587.36,849.45 c -4.491,22.828 -11.193,45.069 -19.889,66.088 h -31.972 c 6.685,-23.769 11.966,-48.087 15.364,-72.555 z"
         fill="#d4eded"
         id="path138" />
      <path
         d="m 545.03,841.95 5.834,1.036 c -3.399,24.469 -8.679,48.787 -15.364,72.555 h -9.138 c 2.716,-6.651 13.125,-33.992 18.668,-73.591 z"
         fill="#eef8f8"
         id="path140" />
      <path
         d="m 624.15,883.119 c 0.487,-2.341 0.991,-4.664 1.456,-7.038 l 35.891,24.766 59.677,47.683 H 686.548 C 664.963,927.683 642.796,906.322 624.15,883.119 Z"
         fill="#008ca1"
         id="path142" />
      <path
         d="m 489.53,948.53 27.907,-20.169 h 37.756 c -16.451,5.493 -31.815,13.164 -47.51,20.169 z"
         fill="#92d7e7"
         id="path144" />
      <path
         d="m 555.19,928.36 h 56.956 l 2.772,-9.054 c 3.584,-11.697 6.63,-23.814 9.233,-36.188 18.646,23.203 40.813,44.565 62.399,65.411 H 507.68 c 15.695,-7.005 31.06,-14.676 47.51,-20.169 z"
         fill="#65c8d0"
         id="path146" />
    </svg>
    <svg
       x="290.92001"
       y="425.12"
       width="100%"
       height="100%"
       data-layer-type="text"
       version="1.1"
       id="svg150" />
  </g>
</svg>
