<?xml version="1.0" encoding="UTF-8" standalone="no"?>
<!-- Created with Inkscape (http://www.inkscape.org/) -->

<svg
   width="102.26036mm"
   height="128.59389mm"
   viewBox="0 0 102.26036 128.59389"
   version="1.1"
   id="svg869"
   inkscape:version="1.1 (c68e22c387, 2021-05-23)"
   sodipodi:docname="robot.svg"
   xmlns:inkscape="http://www.inkscape.org/namespaces/inkscape"
   xmlns:sodipodi="http://sodipodi.sourceforge.net/DTD/sodipodi-0.dtd"
   xmlns="http://www.w3.org/2000/svg"
   xmlns:svg="http://www.w3.org/2000/svg">
  <sodipodi:namedview
     id="namedview871"
     pagecolor="#ffffff"
     bordercolor="#666666"
     borderopacity="1.0"
     inkscape:pageshadow="2"
     inkscape:pageopacity="0.0"
     inkscape:pagecheckerboard="0"
     inkscape:document-units="mm"
     showgrid="false"
     fit-margin-top="0"
     fit-margin-left="0"
     fit-margin-right="0"
     fit-margin-bottom="0"
     inkscape:zoom="0.77771465"
     inkscape:cx="212.16008"
     inkscape:cy="-87.435668"
     inkscape:window-width="1832"
     inkscape:window-height="1377"
     inkscape:window-x="728"
     inkscape:window-y="0"
     inkscape:window-maximized="1"
     inkscape:current-layer="svg148" />
  <defs
     id="defs866" />
  <g
     inkscape:label="Ebene 1"
     inkscape:groupmode="layer"
     id="layer1"
     transform="translate(-285.99388,-307.44219)">
    <svg
       x="203.5"
       y="160.48"
       width="167.64"
       height="210.81"
       data-layer-type="icon"
       preserveAspectRatio="xMinYMin"
       version="1.1"
       viewBox="119.886 31.971 728.866 916.559"
       id="svg148">
      <path
         d="M 638.90602,797.92304 H 593.0975 c 0,0 -3.47456,119.2061 56.43288,215.09806 h 45.16375 C 645.00785,955.64451 622.83619,871.54998 638.90602,797.92304 Z"
         fill="#eef8f8"
         id="path2"
         style="stroke-width:0.609999" />
      <path
         d="m 735.69464,797.92304 h -96.78862 c -16.07288,73.62694 6.10183,157.72147 55.78811,215.09806 h 57.48636 a 298.20435,298.20435 0 0 0 5.35213,-8.9182 c 18.22191,-70.36957 23.4679,-151.29211 -21.8392,-206.17986 z"
         fill="#d4eded"
         id="path4"
         style="stroke-width:0.609999" />
      <path
         d="m 808.62008,797.92304 h -72.91934 c 45.3071,54.88714 40.06111,135.81029 21.8392,206.17986 54.34791,-94.20225 51.08258,-206.17986 51.08258,-206.17986 z M 708.23856,678.31434 c 0,-4.07541 -3.30314,-7.38039 -7.3816,-7.38039 -0.32086,0 -0.62647,0.0537 -0.93757,0.0945 3.75638,3.97049 4.58293,8.77424 5.04775,13.36326 1.96663,-1.32065 3.27142,-3.53189 3.27142,-6.07742 z"
         fill="#acdee0"
         id="path6"
         style="stroke-width:0.609999" />
      <path
         d="m 693.4778,678.31434 c 0,2.8365 1.61405,5.26917 3.96316,6.50747 v 15.30672 h 6.83566 v -15.31099 a 6.2951948,6.2951948 0 0 0 0.68991,-0.42517 c -0.46482,-4.58902 -1.29137,-9.39277 -5.04775,-13.36326 -3.62401,0.46421 -6.44098,3.53129 -6.44098,7.28523 z m 3.97109,3.5258 c 0.20923,0.38064 0.47031,0.63623 0.63135,0.83753 l 0.25925,0.31048 -0.3355,-0.22631 c -0.20984,-0.15005 -0.54534,-0.33549 -0.86742,-0.6533 -0.69235,-0.57828 -1.5128,-1.61833 -1.79157,-2.94569 -0.32513,-1.31821 -0.0647,-2.70657 0.26718,-3.65573 0.16226,-0.4819 0.3416,-0.86864 0.48251,-1.14131 0.14091,-0.27572 0.27572,-0.46299 0.25864,-0.4392 l 2.0252,1.63175 c 0,0 -0.33428,0.25559 -0.79056,0.90402 -0.42944,0.61305 -0.90829,1.54025 -0.94855,2.56993 -0.0854,1.02663 0.3172,2.10511 0.80947,2.80783 z"
         fill="#d4eded"
         id="path8"
         style="stroke-width:0.609999" />
      <path
         d="m 673.85289,713.97491 c -12.48669,16.56454 -21.01936,44.27071 -22.14725,76.13404 h 23.88819 c -12.87953,-22.90854 -11.86815,-52.10006 -1.74094,-76.13404 z"
         fill="#eef8f8"
         id="path10"
         style="stroke-width:0.609999" />
      <path
         d="m 717.85947,709.32 c -4.40602,-4.40968 -9.16036,-8.47472 -14.58447,-11.51191 a 24.746459,24.746459 0 0 0 -2.41926,-0.11895 c -9.9741,0 -19.24915,5.99935 -27.00529,16.28699 -10.12721,24.03154 -11.1392,53.22306 1.74094,76.1316 h 42.26442 c 11.91024,-25.34487 20.1184,-56.20902 0.004,-80.78773 z"
         fill="#d4eded"
         id="path12"
         style="stroke-width:0.609999" />
      <path
         d="m 703.27317,697.80809 c 5.4235,3.03719 10.17845,7.10284 14.58447,11.51191 20.11413,24.57932 11.90658,55.44286 -0.003,80.78834 h 32.15064 c -1.75985,-50.04497 -21.81236,-89.87733 -46.73206,-92.29903 z"
         fill="#acdee0"
         id="path14"
         style="stroke-width:0.609999" />
      <path
         d="m 685.88208,761.81107 h 29.95281 v 8.89989 h -29.95281 z"
         fill="#4d4d4d"
         opacity="0.4"
         id="path16"
         style="stroke-width:0.609999" />
      <path
         d="m 685.88208,761.24377 h 29.95281 v 8.89989 h -29.95281 z"
         fill="#032e3e"
         id="path18"
         style="stroke-width:0.609999" />
      <path
         d="m 692.06138,730.39 c 0,3.41416 -2.7694,6.18539 -6.18235,6.18539 -3.41905,0 -6.18539,-2.77184 -6.18539,-6.18539 0,-3.41844 2.76634,-6.18723 6.18539,-6.18723 3.41295,0 6.18235,2.76879 6.18235,6.18723 z m 29.9528,0 c 0,3.41416 -2.76696,6.18539 -6.18234,6.18539 -3.41539,0 -6.18906,-2.77184 -6.18906,-6.18539 0,-3.41844 2.77367,-6.18723 6.18906,-6.18723 3.41538,0 6.18234,2.76879 6.18234,6.18723 z"
         fill="#4d4d4d"
         opacity="0.4"
         id="path20"
         style="stroke-width:0.609999" />
      <path
         d="m 692.06138,729.9874 c 0,3.4166 -2.7694,6.18722 -6.18235,6.18722 -3.41905,0 -6.18539,-2.77062 -6.18539,-6.18722 a 6.1835649,6.1835649 0 0 1 6.18539,-6.18479 c 3.41295,0 6.18235,2.7694 6.18235,6.18479 z m 29.9528,0 c 0,3.4166 -2.76696,6.18722 -6.18234,6.18722 -3.41539,0 -6.18906,-2.77062 -6.18906,-6.18722 0,-3.41539 2.77367,-6.18479 6.18906,-6.18479 3.41538,0 6.18234,2.7694 6.18234,6.18479 z"
         fill="#032e3e"
         id="path22"
         style="stroke-width:0.609999" />
      <path
         d="m 715.83428,727.26863 a 1.166929,1.166929 0 0 1 -1.16144,1.16388 1.160829,1.160829 0 0 1 -1.16449,-1.16388 c 0,-0.6405 0.51606,-1.16205 1.16449,-1.16205 0.63562,0 1.16144,0.52155 1.16144,1.16205 z m -30.3609,0 a 1.166319,1.166319 0 0 1 -1.16632,1.16388 1.163269,1.163269 0 0 1 0,-2.32593 c 0.64294,0 1.16632,0.52155 1.16632,1.16205 z"
         fill="#ffffff"
         id="path24"
         style="stroke-width:0.609999" />
      <path
         d="m 809.49238,929.84763 c 5.62907,3.75577 7.21385,10.21078 9.59773,16.45291 -0.003,-0.39955 0.0171,-0.78873 0,-1.18706 -0.82655,-17.78271 -15.33234,-31.55467 -32.38975,-30.76228 -13.56639,0.63196 -24.63971,10.28947 -28.21248,23.1507 l 10.85799,-0.50569 c 12.15912,-9.2543 27.06141,-13.689 40.14651,-7.14858 z"
         fill="#92d7e7"
         id="path26"
         style="stroke-width:0.609999" />
      <path
         d="m 818.71069,951.52457 c 0.24583,-1.70922 0.3965,-3.4465 0.37942,-5.22403 -2.38388,-6.24213 -3.96866,-12.69714 -9.59773,-16.45291 -13.0851,-6.54103 -27.98678,-2.10572 -40.14651,7.14858 l 24.8038,-1.15412 0.9699,20.81807 -35.54589,1.65127 c 17.34778,14.92241 43.82175,5.90052 59.13701,-6.78686 z"
         fill="#65c8d0"
         id="path28"
         style="stroke-width:0.609999" />
      <path
         d="m 759.57612,958.31021 -0.1159,0.005 c 4.74763,12.47205 16.67129,21.06389 30.22792,20.42827 14.96328,-0.68991 26.86681,-12.36957 29.0256,-27.22062 -15.31587,12.68799 -41.78984,21.70988 -59.13762,6.78747 z"
         fill="#008ca1"
         id="path30"
         style="stroke-width:0.609999" />
      <path
         d="m 860.9373,816.27121 -3.9345,-1.72568 c -12.2311,-5.39484 -25.42173,-10.12295 -40.32036,-14.44906 a 449.79533,449.79533 0 0 1 -0.35197,12.14143 c 15.08651,-1.09617 30.306,1.37067 43.92729,6.8814 l 1.19194,-2.62422 c -0.16714,-0.0738 -0.3416,-0.15189 -0.5124,-0.22387 z"
         fill="#acdee0"
         id="path32"
         style="stroke-width:0.609999" />
      <path
         d="m 814.37847,840.2387 c 9.71059,3.09819 18.7276,6.466 26.86682,10.05524 l 4.06138,1.78302 4.98979,-11.00134 c -12.08104,-4.82936 -24.67752,-8.67053 -34.97554,-11.82118 a 478.1908,478.1908 0 0 1 -0.94245,10.98426 z"
         fill="#eef8f8"
         id="path34"
         style="stroke-width:0.609999" />
      <path
         d="m 816.33047,812.23973 a 492.44039,492.44039 0 0 1 -1.01077,17.01898 c 10.29802,3.15065 22.8945,6.99182 34.97554,11.82118 l 9.96313,-21.95876 c -13.6219,-5.51073 -28.84139,-7.97757 -43.9279,-6.8814 z m 48.70236,8.9737 -9.92225,21.86665 c 18.90144,8.11055 35.53552,18.84167 38.61968,33.4603 l 13.79209,-4.45238 c -4.76471,-23.2361 -21.29936,-40.89437 -42.48952,-50.87457 z"
         fill="#d4eded"
         id="path36"
         style="stroke-width:0.609999" />
      <path
         d="m 855.11058,843.07764 -5.02762,11.09528 c 14.65951,6.48979 27.87454,13.18392 32.97353,24.97826 0.11285,0.24949 0.18788,0.49715 0.27999,0.74298 l 10.39378,-3.35561 c -3.08416,-14.61924 -19.71824,-25.35097 -38.61968,-33.46091 z"
         fill="#eef8f8"
         id="path38"
         style="stroke-width:0.609999" />
      <path
         d="m 918.91409,863.62608 c -10.78662,-24.91115 -33.18214,-36.37549 -52.69847,-45.03565 l -1.18523,2.61812 c 21.19016,9.9802 37.72481,27.63847 42.48952,50.87457 l 13.00275,-4.19436 c -0.4819,-1.42435 -0.99064,-2.84321 -1.60857,-4.26268 z m -93.09812,81.90464 a 41.375046,41.375046 0 0 1 -1.24013,11.3893 c 8.22462,-2.42353 16.21378,-4.88915 23.81987,-7.3688 9.64531,-3.15247 20.29163,-6.64472 30.72323,-11.32769 l -8.47045,-9.64714 c -14.7138,6.54347 -31.22161,11.38869 -44.83252,16.95433 z"
         fill="#acdee0"
         id="path40"
         style="stroke-width:0.609999" />
      <path
         d="m 836.27136,912.41384 c -6.7832,2.21491 -13.89762,4.41274 -21.22433,6.58861 2.76696,2.97863 5.00749,6.33911 6.74599,9.95824 12.97896,-2.54309 27.38227,-5.35885 40.02024,-10.4499 l -9.99058,-11.38076 c -5.13741,1.87148 -10.38341,3.59473 -15.55132,5.28381 z"
         fill="#eef8f8"
         id="path42"
         style="stroke-width:0.609999" />
      <path
         d="m 825.8117,944.79933 c 0.0104,0.24766 0,0.48861 0.007,0.73627 13.61091,-5.56564 30.11811,-10.41025 44.83252,-16.95494 l -8.8395,-10.06926 c -12.63736,5.09105 -27.04128,7.90681 -40.02024,10.4499 2.35704,4.88427 3.76431,10.23823 4.02051,15.83803 z"
         fill="#d4eded"
         id="path44"
         style="stroke-width:0.609999" />
      <path
         d="m 890.23801,895.98656 c 2.69864,-5.05507 3.92779,-9.7545 3.99977,-14.13674 l -10.4377,3.36598 c -0.93574,4.90134 -5.63579,9.64714 -14.09587,14.17272 -4.00953,2.13622 -8.28257,4.03027 -12.67518,5.7706 l 9.78561,11.15689 c 9.87345,-4.69151 18.28291,-11.07515 23.42337,-20.32945 z"
         fill="#eef8f8"
         id="path46"
         style="stroke-width:0.609999" />
      <path
         d="m 908.46846,877.75916 c -0.0171,-0.16531 -0.0512,-0.31781 -0.072,-0.48007 l -14.16114,4.57195 c -0.072,4.38224 -1.30113,9.08167 -3.99977,14.13674 -5.14046,9.2543 -13.54931,15.63794 -23.42398,20.32945 l 8.76081,9.97532 c 20.18672,-9.8765 35.65203,-23.74179 32.89606,-48.53339 z"
         fill="#d4eded"
         id="path48"
         style="stroke-width:0.609999" />
      <path
         d="m 921.93908,872.9054 -13.5426,4.37369 c 0.0207,0.16226 0.0543,0.31415 0.072,0.48007 2.75658,24.7916 -12.70934,38.6575 -32.89545,48.53339 l 8.45704,9.63006 c 1.3664,-0.67099 2.73584,-1.35236 4.0815,-2.07643 26.68931,-14.26057 39.19674,-37.44177 33.82753,-60.94078 z"
         fill="#acdee0"
         id="path50"
         style="stroke-width:0.609999" />
      <path
         d="m 592.22215,929.84763 c -5.63213,3.75577 -7.21019,10.21078 -9.5959,16.45291 0.002,-0.39955 -0.0207,-0.78873 0,-1.18706 0.82838,-17.78271 15.3305,-31.55467 32.39158,-30.76228 13.56212,0.63196 24.63361,10.28947 28.20028,23.1507 l -10.85433,-0.50569 c -12.15119,-9.2543 -27.05531,-13.689 -40.14163,-7.14858 z"
         fill="#92d7e7"
         id="path52"
         style="stroke-width:0.609999" />
      <path
         d="m 583.00445,951.52457 c -0.24705,-1.70922 -0.39894,-3.4465 -0.3782,-5.22403 2.38571,-6.24213 3.96377,-12.69714 9.5959,-16.45291 13.08693,-6.54103 27.99044,-2.10572 40.14163,7.14858 l -24.79343,-1.15412 -0.97234,20.81807 35.53857,1.65127 c -17.349,14.92241 -43.81688,5.90052 -59.13213,-6.78686 z"
         fill="#65c8d0"
         id="path54"
         style="stroke-width:0.609999" />
      <path
         d="m 642.13902,958.31021 0.11468,0.005 c -4.74336,12.47205 -16.66336,21.06389 -30.22182,20.42827 -14.96267,-0.68991 -26.86254,-12.36957 -29.02438,-27.22062 15.31525,12.68799 41.78313,21.70988 59.13152,6.78747 z"
         fill="#008ca1"
         id="path56"
         style="stroke-width:0.609999" />
      <path
         d="m 540.77662,816.27121 3.93755,-1.72568 c 12.22927,-5.39484 25.42539,-10.12295 40.32219,-14.44906 0.0537,3.72892 0.16531,7.80372 0.34769,12.14143 -15.08589,-1.09617 -30.30782,1.37067 -43.93094,6.8814 l -1.18889,-2.62422 c 0.16775,-0.0738 0.34404,-0.15189 0.5124,-0.22387 z"
         fill="#eef8f8"
         id="path58"
         style="stroke-width:0.609999" />
      <path
         d="m 587.34459,840.24053 c -9.71729,3.09819 -18.7343,6.466 -26.87108,10.05524 l -4.06565,1.78302 -4.98919,-11.00134 c 12.08348,-4.82936 24.6818,-8.67053 34.97188,-11.82118 0.27084,3.55203 0.57584,7.19312 0.95404,10.98426 z"
         fill="#acdee0"
         id="path60"
         style="stroke-width:0.609999" />
      <path
         d="m 585.38466,812.23973 c 0.21655,5.26429 0.55022,10.98182 1.0065,17.01898 -10.29008,3.15065 -22.8884,6.99182 -34.97188,11.82118 l -9.96556,-21.95876 c 13.62251,-5.51073 28.84505,-7.97757 43.93094,-6.8814 z m -48.70357,8.9737 9.92286,21.86665 c -18.90389,8.11055 -35.53369,18.84167 -38.6209,33.4603 L 494.19096,872.088 c 4.76715,-23.2361 21.30545,-40.89437 42.49013,-50.87457 z"
         fill="#d4eded"
         id="path62"
         style="stroke-width:0.609999" />
      <path
         d="m 546.60395,843.07764 5.03432,11.09528 c -14.66743,6.48979 -27.88307,13.18392 -32.98206,24.97826 -0.10736,0.24949 -0.18788,0.49715 -0.27328,0.74298 l -10.39927,-3.35561 c 3.0866,-14.61924 19.71579,-25.35097 38.62029,-33.46091 z"
         fill="#acdee0"
         id="path64"
         style="stroke-width:0.609999" />
      <path
         d="m 482.79495,863.62608 c 10.78723,-24.91115 33.18275,-36.37549 52.7003,-45.03565 l 1.18279,2.61812 c -21.18529,9.9802 -37.72298,27.63847 -42.48952,50.87457 l -12.99848,-4.19436 c 0.47824,-1.42435 0.99064,-2.84321 1.60491,-4.26268 z m 93.09812,81.90464 c -0.10675,3.89057 0.31354,7.71222 1.24501,11.3893 -8.22401,-2.42353 -16.21561,-4.88915 -23.81743,-7.3688 -9.65202,-3.15247 -20.29407,-6.64472 -30.72811,-11.32769 l 8.47045,-9.64714 c 14.71441,6.54347 31.22099,11.38869 44.83008,16.95433 z"
         fill="#eef8f8"
         id="path66"
         style="stroke-width:0.609999" />
      <path
         d="m 565.44378,912.41384 c 6.78259,2.21491 13.8964,4.41274 21.22005,6.58861 -2.76207,2.97863 -5.00443,6.33911 -6.74415,9.95824 -12.98201,-2.54309 -27.37922,-5.35885 -40.01597,-10.4499 l 9.99057,-11.38076 c 5.13315,1.87148 10.37854,3.59473 15.5495,5.28381 z"
         fill="#acdee0"
         id="path68"
         style="stroke-width:0.609999" />
      <path
         d="m 575.90344,944.79933 c -0.0134,0.24766 0,0.48861 -0.009,0.73627 -13.60909,-5.56564 -30.11567,-10.41025 -44.83008,-16.95494 l 8.84194,-10.06926 c 12.63675,5.09105 27.03396,7.90681 40.01597,10.4499 -2.35277,4.88427 -3.75943,10.23823 -4.01868,15.83803 z"
         fill="#d4eded"
         id="path70"
         style="stroke-width:0.609999" />
      <path
         d="m 511.47713,895.98656 c -2.69742,-5.05507 -3.92596,-9.7545 -4.00221,-14.13674 l 10.44075,3.36598 c 0.93086,4.90134 5.63396,9.64714 14.0977,14.17272 4.00709,2.13622 8.27342,4.03027 12.67884,5.7706 l -9.79049,11.15689 c -9.87406,-4.69151 -18.2823,-11.07515 -23.42459,-20.32945 z"
         fill="#acdee0"
         id="path72"
         style="stroke-width:0.609999" />
      <path
         d="m 493.24607,877.75916 c 0.0213,-0.16531 0.0476,-0.31781 0.0726,-0.48007 l 14.15809,4.57195 c 0.0762,4.38224 1.30479,9.08167 4.00221,14.13674 5.14229,9.2543 13.55053,15.63794 23.42398,20.32945 l -8.76143,9.97532 c -20.18732,-9.8765 -35.65142,-23.74179 -32.89544,-48.53339 z"
         fill="#d4eded"
         id="path74"
         style="stroke-width:0.609999" />
      <path
         d="m 479.77301,872.9054 13.54504,4.37369 c -0.025,0.16226 -0.0512,0.31415 -0.0726,0.48007 -2.75537,24.7916 12.70873,38.6575 32.89544,48.53339 l -8.45215,9.63006 c -1.37006,-0.67099 -2.73585,-1.35236 -4.08822,-2.07643 C 486.92098,919.58561 474.40989,896.40441 479.773,872.9054 Z"
         fill="#eef8f8"
         id="path76"
         style="stroke-width:0.609999" />
      <path
         d="m 691.41478,862.88799 a 4.2334005,4.2334005 0 1 1 -8.4668,0.004 4.2334005,4.2334005 0 0 1 8.4668,-0.004 z m 13.67558,0 a 4.2315665,4.2315665 0 0 1 -4.23584,4.23522 4.2327865,4.2327865 0 0 1 -4.23218,-4.23522 4.2309565,4.2309565 0 0 1 4.23218,-4.23035 4.2309565,4.2309565 0 0 1 4.23584,4.23035 z m 13.67252,0 a 4.2346165,4.2346165 0 0 1 -4.23156,4.23522 4.2358365,4.2358365 0 0 1 -4.23523,-4.23522 c 0,-2.3363 1.89893,-4.23035 4.23523,-4.23035 2.33264,6.1e-4 4.23156,1.89466 4.23156,4.23035 z m -27.3481,13.67801 a 4.2321765,4.2321765 0 0 1 -4.23279,4.23035 4.2321765,4.2321765 0 0 1 -4.23279,-4.23035 4.2352265,4.2352265 0 0 1 4.23279,-4.23522 4.2352265,4.2352265 0 0 1 4.23279,4.23522 z m 13.67558,0 a 4.2303465,4.2303465 0 0 1 -4.23584,4.23035 4.2315665,4.2315665 0 0 1 -4.23218,-4.23035 4.23401,4.23401 0 1 1 8.46802,0 z m 13.67252,0 a 4.2333965,4.2333965 0 0 1 -8.46679,0 4.2376665,4.2376665 0 0 1 4.23523,-4.23522 c 2.33264,0 4.23156,1.8971 4.23156,4.23522 z m -27.3481,13.6707 a 4.2352265,4.2352265 0 0 1 -4.23279,4.23523 4.2352265,4.2352265 0 0 1 -4.23279,-4.23523 4.2321765,4.2321765 0 0 1 4.23279,-4.23034 4.2321765,4.2321765 0 0 1 4.23279,4.23034 z m 13.67558,0 a 4.2333965,4.2333965 0 0 1 -4.23584,4.23523 4.2352265,4.2352265 0 0 1 -4.23218,-4.23523 4.2309565,4.2309565 0 0 1 4.23218,-4.23034 4.2303465,4.2303465 0 0 1 4.23584,4.23034 z m 13.67252,0 c 0,2.33813 -1.89892,4.23523 -4.23156,4.23523 a 4.2382765,4.2382765 0 0 1 -4.23523,-4.23523 4.2333965,4.2333965 0 0 1 8.46679,0 z m -13.76829,13.77135 c 0,2.38754 -1.9398,4.32429 -4.32978,4.32429 -2.38998,0 -4.32734,-1.93675 -4.32734,-4.32429 a 4.32856,4.32856 0 1 1 8.65712,0 z"
         fill="#032e3e"
         id="path78"
         style="stroke-width:0.609999" />
      <path
         d="m 691.41478,863.65048 a 4.2321765,4.2321765 0 0 1 -4.23279,4.23035 4.2321765,4.2321765 0 1 1 0,-8.46374 4.2333965,4.2333965 0 0 1 4.23279,4.23339 z m 13.67558,0 a 4.2303465,4.2303465 0 0 1 -4.23584,4.23035 4.2318715,4.2318715 0 1 1 0,-8.46374 4.2321765,4.2321765 0 0 1 4.23584,4.23339 z m 13.67252,0 a 4.2333965,4.2333965 0 0 1 -8.46679,0 4.2358365,4.2358365 0 0 1 4.23523,-4.23339 4.2358365,4.2358365 0 0 1 4.23156,4.23339 z"
         fill="#4d4d4d"
         id="path80"
         style="stroke-width:0.609999" />
      <circle
         cx="687.1814"
         cy="877.32056"
         r="4.2327867"
         fill="#4d4d4d"
         id="circle82"
         style="stroke-width:0.609999" />
      <path
         d="m 705.09097,877.32057 a 4.2321765,4.2321765 0 0 1 -4.23584,4.23523 4.2333965,4.2333965 0 0 1 -4.23218,-4.23523 4.2309565,4.2309565 0 0 1 4.23218,-4.23156 4.2297365,4.2297365 0 0 1 4.23584,4.23156 z m 13.67252,0 a 4.2358365,4.2358365 0 0 1 -4.23156,4.23523 4.2370565,4.2370565 0 0 1 -4.23523,-4.23523 4.2333965,4.2333965 0 0 1 8.46679,0 z m -27.3481,13.67558 a 4.2364465,4.2364465 0 0 1 -4.23279,4.23523 4.2364465,4.2364465 0 0 1 -4.23279,-4.23523 4.2321765,4.2321765 0 0 1 4.23279,-4.23156 4.2321765,4.2321765 0 0 1 4.23279,4.23156 z m 13.67558,0 a 4.2346165,4.2346165 0 1 1 -8.46802,0 4.2309565,4.2309565 0 0 1 4.23218,-4.23156 4.2309565,4.2309565 0 0 1 4.23584,4.23156 z m 13.67252,0 c 0,2.3363 -1.89892,4.23523 -4.23156,4.23523 a 4.2388865,4.2388865 0 0 1 -4.23523,-4.23523 4.2340065,4.2340065 0 0 1 8.46679,0 z"
         fill="#4d4d4d"
         id="path84"
         style="stroke-width:0.609999" />
      <path
         d="m 704.99337,904.76445 c 0,2.38571 -1.9398,4.32429 -4.32978,4.32429 a 4.3273364,4.3273364 0 0 1 0,-8.65346 4.3303864,4.3303864 0 0 1 4.32978,4.32917 z"
         fill="#4d4d4d"
         opacity="0.5"
         id="path86"
         style="stroke-width:0.609999" />
      <path
         d="m 651.50251,1019.115 a 238.0828,238.0828 0 0 0 -16.59382,38.2134 l 12.04749,0.7277 c 5.60041,-13.9049 13.08388,-27.034 22.58645,-38.9405 h -18.04012 z"
         fill="#eef8f8"
         id="path88"
         style="stroke-width:0.609999" />
      <path
         d="m 669.54629,1019.115 c -9.50196,11.9065 -16.98543,25.0362 -22.58645,38.9405 l 22.69381,1.3902 a 168.75026,168.75026 0 0 1 21.76967,-40.3307 z"
         fill="#d4eded"
         id="path90"
         style="stroke-width:0.609999" />
      <path
         d="m 697.24637,1019.115 h -5.82366 a 168.75026,168.75026 0 0 0 -21.76967,40.3307 l 5.9475,0.3587 c 5.28809,-13.4231 12.3409,-27.0852 21.64583,-40.6894 z"
         fill="#acdee0"
         id="path92"
         style="stroke-width:0.609999" />
      <path
         d="m 632.99513,1063.2972 c -5.00139,16.4322 -7.88791,32.4001 -9.29457,47.5208 l 11.03123,-1.0864 c 1.41459,-15.6569 4.69212,-31.0612 9.9613,-45.7243 z"
         fill="#eef8f8"
         id="path94"
         style="stroke-width:0.609999" />
      <path
         d="m 644.69492,1064.0048 c -5.26918,14.6632 -8.54671,30.0675 -9.9613,45.7244 l 23.96749,-2.3638 c 1.40117,-14.2636 4.25597,-28.3216 8.82426,-41.96 z"
         fill="#d4eded"
         id="path96"
         style="stroke-width:0.609999" />
      <path
         d="m 673.38319,1065.7616 -5.8627,-0.3519 c -4.56829,13.6383 -7.42309,27.697 -8.82426,41.96 l 4.77935,-0.4783 c 1.73972,-13.1534 4.85377,-26.979 9.90761,-41.1298 z"
         fill="#acdee0"
         id="path98"
         style="stroke-width:0.609999" />
      <path
         d="m 634.25782,1115.8792 -11.05197,1.0961 c -1.21329,17.8157 -0.40321,34.3162 1.37372,48.8256 l 12.32138,-2.1789 c -2.6413,-15.7148 -3.59777,-31.809 -2.64313,-47.7428 z"
         fill="#eef8f8"
         id="path100"
         style="stroke-width:0.609999" />
      <path
         d="m 658.2003,1113.5246 -23.94309,2.3534 c -0.95464,15.9338 0.002,32.028 2.64374,47.7428 l 22.58767,-4.0028 c -1.81292,-15.3903 -2.34544,-30.8325 -1.28832,-46.0934 z"
         fill="#d4eded"
         id="path102"
         style="stroke-width:0.609999" />
      <path
         d="m 662.75639,1113.075 -4.55609,0.4508 c -1.05712,15.261 -0.52399,30.7025 1.28832,46.0928 l 3.57521,-0.6356 c -1.51951,-13.5451 -2.01666,-29.1031 -0.30744,-45.908 z"
         fill="#acdee0"
         id="path104"
         style="stroke-width:0.609999" />
      <path
         d="m 625.38843,1171.8344 c 2.28323,15.6606 5.60041,28.684 8.48448,38.0768 h 16.26259 c -5.31187,-12.8222 -9.39704,-26.3886 -12.13533,-40.3136 z"
         fill="#eef8f8"
         id="path106"
         style="stroke-width:0.609999" />
      <path
         d="m 637.99712,1169.5957 c 2.73829,13.9251 6.82346,27.4921 12.13533,40.3137 h 19.50168 c -4.08089,-14.4991 -7.29986,-29.3331 -9.37752,-44.2585 z"
         fill="#d4eded"
         id="path108"
         style="stroke-width:0.609999" />
      <path
         d="m 663.8245,1165.0207 -3.56423,0.632 c 2.07766,14.9261 5.29663,29.76 9.37752,44.2585 h 5.5693 c -1.65859,-4.0571 -8.00746,-20.7351 -11.38259,-44.8905 z"
         fill="#acdee0"
         id="path110"
         style="stroke-width:0.609999" />
      <path
         d="m 615.56134,1190.1344 c -0.30195,-1.428 -0.60878,-2.845 -0.88877,-4.2932 l -21.89166,15.1073 -36.40721,29.0866 h 21.12245 c 13.16623,-12.7167 26.68199,-25.7469 38.06519,-39.9007 z"
         fill="#92d7e7"
         id="path112"
         style="stroke-width:0.609999" />
      <path
         d="m 697.68557,1230.0345 -17.0324,-12.3031 h -23.02505 c 10.03511,3.3507 19.40531,8.03 28.97681,12.3031 z"
         fill="#008ca1"
         id="path114"
         style="stroke-width:0.609999" />
      <path
         d="m 657.6269,1217.7308 h -34.73947 l -1.6964,-5.5229 c -2.18502,-7.1352 -4.04064,-14.5266 -5.62542,-22.0747 -11.3832,14.1538 -24.89835,27.1846 -38.0658,39.9007 h 109.10451 c -9.57089,-4.2731 -18.9417,-8.9524 -28.97681,-12.3031 z"
         fill="#65c8d0"
         id="path116"
         style="stroke-width:0.609999" />
      <path
         d="m 750.20653,1019.115 a 238.4244,238.4244 0 0 1 16.59625,38.2134 l -12.05359,0.7277 c -5.60162,-13.9049 -13.08509,-27.034 -22.59072,-38.9405 h 18.04806 z"
         fill="#acdee0"
         id="path118"
         style="stroke-width:0.609999" />
      <path
         d="m 732.16274,1019.115 c 9.50563,11.9065 16.9891,25.0362 22.59072,38.9405 l -22.68954,1.3902 a 168.84786,168.84786 0 0 0 -21.77759,-40.3307 z"
         fill="#d4eded"
         id="path120"
         style="stroke-width:0.609999" />
      <path
         d="m 704.4706,1019.1168 h 5.81329 a 168.84786,168.84786 0 0 1 21.77759,40.3307 l -5.94627,0.3587 c -5.29114,-13.423 -12.34395,-27.0852 -21.64461,-40.6894 z"
         fill="#eef8f8"
         id="path122"
         style="stroke-width:0.609999" />
      <path
         d="m 768.72001,1063.2972 c 5.00017,16.4322 7.88669,32.4001 9.29395,47.5208 l -11.0355,-1.0864 c -1.41031,-15.6569 -4.69272,-31.0612 -9.96312,-45.7243 z"
         fill="#acdee0"
         id="path124"
         style="stroke-width:0.609999" />
      <path
         d="m 757.01412,1064.0048 c 5.2704,14.6632 8.55281,30.0675 9.96312,45.7244 l -23.96688,-2.3638 c -1.40726,-14.2636 -4.25596,-28.3216 -8.82242,-41.96 z"
         fill="#d4eded"
         id="path126"
         style="stroke-width:0.609999" />
      <path
         d="m 728.31975,1065.7616 5.86819,-0.3519 c 4.56646,13.6383 7.41516,27.697 8.82242,41.96 l -4.77812,-0.4783 c -1.73911,-13.1534 -4.85438,-26.979 -9.91249,-41.1298 z"
         fill="#eef8f8"
         id="path128"
         style="stroke-width:0.609999" />
      <path
         d="m 767.45365,1115.8792 11.05624,1.0961 c 1.20902,17.8157 0.40321,34.3162 -1.3731,48.8256 l -12.32687,-2.1789 c 2.64007,-15.7148 3.59655,-31.809 2.64373,-47.7428 z"
         fill="#acdee0"
         id="path130"
         style="stroke-width:0.609999" />
      <path
         d="m 743.50873,1113.5246 23.94309,2.3534 c 0.95282,15.9338 -0.004,32.028 -2.64373,47.7428 l -22.58402,-4.0028 c 1.80743,-15.3903 2.33996,-30.8325 1.28466,-46.0934 z"
         fill="#d4eded"
         id="path132"
         style="stroke-width:0.609999" />
      <path
         d="m 738.95387,1113.075 4.55669,0.4508 c 1.0553,15.261 0.52277,30.7025 -1.28405,46.0928 l -3.57947,-0.6356 c 1.51951,-13.5451 2.01849,-29.1031 0.30683,-45.908 z"
         fill="#eef8f8"
         id="path134"
         style="stroke-width:0.609999" />
      <path
         d="m 776.32671,1171.8344 c -2.28506,15.6606 -5.60163,28.684 -8.48449,38.0768 h -16.26136 c 5.30455,-12.8222 9.39277,-26.3886 12.13228,-40.3136 z"
         fill="#acdee0"
         id="path136"
         style="stroke-width:0.609999" />
      <path
         d="m 763.71192,1169.5957 c -2.73951,13.9251 -6.82773,27.4921 -12.13228,40.3137 h -19.50291 c 4.07785,-14.4991 7.29926,-29.3331 9.37204,-44.2585 z"
         fill="#d4eded"
         id="path138"
         style="stroke-width:0.609999" />
      <path
         d="m 737.89064,1165.0207 3.55874,0.632 c -2.07339,14.9261 -5.29419,29.76 -9.37204,44.2585 h -5.57417 c 1.65676,-4.0571 8.00624,-20.7351 11.38747,-44.8905 z"
         fill="#eef8f8"
         id="path140"
         style="stroke-width:0.609999" />
      <path
         d="m 786.1538,1190.1338 c 0.29707,-1.428 0.60451,-2.845 0.88816,-4.2932 l 21.89349,15.1073 36.40294,29.0866 h -21.12184 c -13.16684,-12.7167 -26.6887,-25.7469 -38.06275,-39.9007 z"
         fill="#008ca1"
         id="path142"
         style="stroke-width:0.609999" />
      <path
         d="m 704.03567,1230.0345 17.02325,-12.3031 h 23.03114 c -10.0351,3.3507 -19.40713,8.03 -28.98107,12.3031 z"
         fill="#92d7e7"
         id="path144"
         style="stroke-width:0.609999" />
      <path
         d="m 744.08823,1217.7308 h 34.74313 l 1.69092,-5.5229 c 2.18624,-7.1352 4.0443,-14.5266 5.63213,-22.0747 11.37405,14.1538 24.89591,27.1846 38.06336,39.9007 H 715.10716 c 9.57394,-4.2731 18.94658,-8.9524 28.98107,-12.3031 z"
         fill="#65c8d0"
         id="path146"
         style="stroke-width:0.609999" />
    </svg>
    <svg
       x="290.92001"
       y="425.12"
       width="100%"
       height="100%"
       data-layer-type="text"
       version="1.1"
       id="svg150" />
  </g>
</svg>
