<?xml version="1.0" encoding="UTF-8" standalone="no"?>
<svg
   version="1.1"
   viewBox="0 0 134.78198 229.58446"
   width="134.78198pt"
   height="229.58446pt"
   id="svg425"
   sodipodi:docname="logo.svg"
   inkscape:version="1.1 (c68e22c387, 2021-05-23)"
   xmlns:inkscape="http://www.inkscape.org/namespaces/inkscape"
   xmlns:sodipodi="http://sodipodi.sourceforge.net/DTD/sodipodi-0.dtd"
   xmlns="http://www.w3.org/2000/svg"
   xmlns:svg="http://www.w3.org/2000/svg">
  <defs
     id="defs429" />
  <sodipodi:namedview
     id="namedview427"
     pagecolor="#ffffff"
     bordercolor="#666666"
     borderopacity="1.0"
     inkscape:pageshadow="2"
     inkscape:pageopacity="0.0"
     inkscape:pagecheckerboard="0"
     inkscape:document-units="pt"
     showgrid="false"
     fit-margin-top="0"
     fit-margin-left="0"
     fit-margin-right="0"
     fit-margin-bottom="0"
     inkscape:zoom="2.7809524"
     inkscape:cx="-56.994863"
     inkscape:cy="155.34247"
     inkscape:window-width="1972"
     inkscape:window-height="1377"
     inkscape:window-x="588"
     inkscape:window-y="0"
     inkscape:window-maximized="1"
     inkscape:current-layer="svg425" />
  <path
     d="m 38.011988,0.97445103 c 21.36,10.72999997 42.9,21.15999997 64.250002,31.89999997 0.01,10.49 0.01,20.98 0,31.47 10.86,5.18 21.66,10.47 32.52,15.66 -0.01,39.259999 0,78.519999 -0.01,117.779999 -22.3,10.61 -44.610002,21.22 -66.920002,31.8 -22.61,-10.84 -45.22,-21.69 -67.79999954,-32.6 -0.1,-25.66 0,-51.33 -0.05,-76.99 -0.03,-4.67 0.29,-9.33 0.25,-14 -0.04,-28.339999 0.04,-56.669999 -0.04,-85.009999 0.03,-1.43 0,-2.93 0.31,-4.33 1.99000004,-1.47 4.36000004,-2.5 6.56000004,-3.61 8.2799995,-4.01 16.4299995,-8.28 24.6999995,-12.29999997 2.26,-1.17 4.03,-0.86 6.23,0.23 z"
     fill="#caf2f8"
     id="path275" />
  <path
     d="m 34.651988,2.184451 c 21.35,10.23 42.45,21.04 63.76,31.38 -10.15,4.81 -20.34,9.53 -30.5,14.32 -21.25,-10.21 -42.53,-20.35 -63.7699995,-30.55 10.1699995,-5.03 20.2399995,-10.32 30.5099995,-15.15 z"
     fill="#333333"
     id="path277" />
  <path
     d="m 1.5419885,19.364451 c 1.3,0.42 2.59,0.86 3.87,1.32 20.4399995,9.72 40.9099995,19.66 61.3499995,29.43 0.01,0.87 0.02,1.75 0.03,2.63 -20.34,-9.72 -40.78,-19.63 -61.1399995,-29.38 -1.97,-0.84 -2.91,-2.28 -4.11,-4 z"
     fill="#333333"
     id="path279" />
  <path
     d="m 2.1019885,24.484451 c 4.5,1.88 8.8199995,4.11 13.2299995,6.2 17.12,8.27 34.29,16.45 51.38,24.78 0.02,0.85 0.04,1.7 0.06,2.56 -19.77,-9.48 -39.5,-19.06 -59.2899995,-28.5 -1.55,-0.75 -3.08,-1.5 -4.57,-2.37 l -0.21,-0.6 c -0.21,-0.68 -0.41,-1.37 -0.6,-2.07 z"
     fill="#333333"
     id="path281" />
  <path
     d="m 2.6119885,29.994451 c 3.14,1.19 6.13,2.78 9.1599995,4.23 18.29,8.85 36.62,17.61 54.91,26.45 0.04,0.89 0.08,1.77 0.12,2.66 -21.42,-10.4 -42.99,-20.61 -64.3699995,-31.08 0.04,-0.75 0.1,-1.51 0.18,-2.26 z"
     fill="#333333"
     id="path283" />
  <path
     d="m 1.5419885,35.144451 c 1.36,0.44 2.69,0.91 4.02,1.41 20.4199995,9.76 40.8299995,19.61 61.1999995,29.45 0,0.86 0,1.71 0,2.57 -18.52,-8.93 -37.05,-17.86 -55.6,-26.75 -3.7499995,-1.95 -7.4399995,-2.65 -9.6199995,-6.68 z"
     fill="#333333"
     id="path285" />
  <path
     d="m 100.00199,35.504451 c 0.02,9.59 0.01,19.17 0,28.75 -10.300002,4.96 -20.670002,9.79 -30.990002,14.7 0,-9.65 0,-19.3 0,-28.95 10.34,-4.81 20.66,-9.67 30.990002,-14.5 z"
     fill="#333333"
     id="path287" />
  <path
     d="m 1.5619885,40.344451 c 1.27,0.44 2.54,0.9 3.8,1.38 20.4899995,9.74 40.9299995,19.71 61.3899995,29.51 0.01,0.86 0.01,1.73 0.02,2.59 -20.4,-9.8 -40.77,-19.66 -61.1899995,-29.41 -1.96,-0.85 -2.86,-2.36 -4.02,-4.07 z"
     fill="#333333"
     id="path289" />
  <path
     d="m 2.7019885,45.874451 c 1.07,0.36 2.11,0.82 3.15,1.3 20.2899995,9.77 40.5599995,19.58 60.8799995,29.29 0,0.86 0,1.72 0,2.58 -21.4,-10.4 -43.01,-20.51 -64.3299995,-31.05 0.08,-0.71 0.18,-1.42 0.3,-2.12 z"
     fill="#333333"
     id="path291" />
  <path
     d="m 2.5519885,51.054451 c 1.05,0.37 2.08,0.81 3.09,1.27 20.3299995,9.8 40.6699995,19.59 61.0299995,29.33 0.04,0.95 0.09,1.91 0.13,2.86 -21.58,-10.1 -43.03,-20.45 -64.3299995,-31.14 0.01,-0.77 0.03,-1.55 0.08,-2.32 z"
     fill="#333333"
     id="path293" />
  <path
     d="m 1.5619885,56.214451 c 1.31,0.45 2.6,0.92 3.89,1.42 8.1299995,3.77 16.0299995,7.99 24.1499995,11.76 2.38,1.05 3.47,2.26 4.85,4.5 -9.45,-3.5 -18.24,-8.76 -27.4199995,-12.9 -2.66,-1.16 -3.93,-2.23 -5.47,-4.78 z"
     fill="#333333"
     id="path295" />
  <path
     d="m 2.5819885,61.424451 c 9.3699995,4.66 18.7699995,9.25 28.1799995,13.84 1.93,0.79 2.56,2.32 3.63,4 -10.92,-4.47 -21.28,-10.3 -31.9499995,-15.34 0.05,-0.83 0.09,-1.67 0.14,-2.5 z"
     fill="#333333"
     id="path297" />
  <path
     d="m 2.6619885,66.904451 c 10.3899995,4.67 20.4999995,10.12 30.8199995,14.97 0.01,0.86 0.03,1.71 0.04,2.57 -10.4,-5.04 -20.82,-10.08 -31.0999995,-15.34 0.06,-0.74 0.14,-1.47 0.24,-2.2 z"
     fill="#333333"
     id="path299" />
  <path
     d="m 100.00199,66.934451 c 0.02,9.26 0.01,18.51 0.01,27.77 -9.750002,-4.66 -19.530002,-9.27 -29.320002,-13.86 9.75,-4.68 19.57,-9.21 29.310002,-13.91 z"
     fill="#333333"
     id="path301" />
  <path
     d="m 102.25199,67.024451 c 9.56,4.56 19.07,9.22 28.63,13.78 -9.5,4.72 -19.12,9.21 -28.63,13.92 0.02,-9.23 0.03,-18.47 0,-27.7 z"
     fill="#333333"
     id="path303" />
  <path
     d="m 2.5419885,72.064451 c 7.35,3.31 14.4899995,7.16 21.7999995,10.59 3.9,2.08 7.71,2.99 10.18,7 -5.28,-1.52 -9.69,-4.2 -14.59,-6.58 -5.79,-2.95 -11.7999995,-5.54 -17.4699995,-8.72 0.01,-0.76 0.04,-1.53 0.08,-2.29 z"
     fill="#333333"
     id="path305" />
  <path
     d="m 35.781988,72.494451 c 10.33,4.9 20.68,9.77 30.97,14.73 0,25.729999 0.01,51.469999 0,77.199999 -10.33,4.82 -20.67,9.6 -30.96,14.5 -0.03,-35.47 -0.01,-70.95 -0.01,-106.429999 z"
     fill="#333333"
     id="path307" />
  <path
     d="m 1.6119885,77.264451 c 1.29,0.42 2.57,0.88 3.84,1.36 6.0499995,2.91 11.9899995,6.04 18.0699995,8.88 4.07,2.12 8.11,3.29 11.01,7 -5.05,-1.38 -9.83,-4.17 -14.64,-6.4 -4.92,-2.44 -9.9699995,-4.64 -14.8599995,-7.14 -1.69,-0.79 -2.34,-2.27 -3.42,-3.7 z"
     fill="#333333"
     id="path309" />
  <path
     d="m 2.5719885,82.444451 c 7.6299995,3.72 15.2999995,7.39 22.9699995,11.03 3.52,1.79 6.93,2.53 8.86,6.36 -2.99,-0.94 -5.83,-2.22 -8.63,-3.6 -7.75,-3.83 -15.61,-7.42 -23.3199995,-11.3 0.04,-0.83 0.08,-1.66 0.12,-2.49 z"
     fill="#333333"
     id="path311" />
  <path
     d="m 69.011988,82.674451 c 10.31,4.91 20.65,9.78 30.990002,14.65 0,1 0.01,1.99 0.01,2.989999 -10.330002,-4.879999 -20.620002,-9.859999 -30.990002,-14.669999 0,-0.99 -0.01,-1.98 -0.01,-2.97 z"
     fill="#333333"
     id="path313" />
  <path
     d="m 132.50199,82.784451 c 0.01,37.469999 0,74.939999 0,112.419999 -10.07,-4.87 -20.12,-9.78 -30.23,-14.57 0,-27.77 -0.01,-55.53 0,-83.289999 10.1,-4.81 20.11,-9.79 30.23,-14.56 z"
     fill="#333333"
     id="path315" />
  <path
     d="m 1.9819885,87.634451 c 9.4899995,4.16 18.7199995,8.93 28.1299995,13.269999 2.25,0.91 3.09,2.28 4.29,4.34 -4.77,-1.6 -9.03,-3.98 -13.56,-6.099999 -5.87,-2.9 -11.8599995,-5.55 -17.6599995,-8.56 -0.41,-0.98 -0.81,-1.96 -1.2,-2.95 z"
     fill="#333333"
     id="path317" />
  <path
     d="m 69.121988,88.444451 c 7.92,3.39 15.59,7.44 23.46,10.98 3.39,1.809999 6.77,2.199999 8.240002,6.239999 -5.020002,-1.9 -9.840002,-4.49 -14.710002,-6.769999 -5.72,-2.82 -11.57,-5.38 -17.2,-8.37 0.05,-0.69 0.12,-1.39 0.21,-2.08 z"
     fill="#333333"
     id="path319" />
  <path
     d="m 1.5319885,93.154451 c 1.36,0.43 2.7,0.88 4.04,1.37 9.3399995,4.36 18.5799995,8.959999 27.9099995,13.349999 0.01,0.86 0.02,1.72 0.04,2.58 -7.71,-3.59 -15.33,-7.36 -23.02,-10.979999 -3.5099995,-1.77 -6.9299995,-2.61 -8.9699995,-6.32 z"
     fill="#333333"
     id="path321" />
  <path
     d="m 68.511988,93.304451 c 10.62,4.7 20.97,9.999999 31.490002,14.919999 0.01,0.87 0.01,1.74 0.01,2.61 -10.130002,-4.92 -20.360002,-9.65 -30.430002,-14.669999 -0.37,-0.95 -0.73,-1.9 -1.07,-2.86 z"
     fill="#333333"
     id="path323" />
  <path
     d="m 1.5519885,98.354451 c 1.29,0.43 2.57,0.89 3.83,1.36 8.1599995,3.749999 16.1699995,7.809999 24.3099995,11.589999 2.32,1.01 3.42,2.25 4.77,4.39 -4.48,-1.34 -8.44,-3.54 -12.63,-5.54 -5.39,-2.65 -10.84,-5.14 -16.2399995,-7.76 -1.97,-0.83 -2.86,-2.33 -4.04,-4.039999 z"
     fill="#333333"
     id="path325" />
  <path
     d="m 68.191988,98.594451 c 10.82,4.379999 21.13,10.049999 31.77,14.849999 0.03,0.89 0.05,1.77 0.07,2.65 -9.490002,-4.55 -19.020002,-9.07 -28.490002,-13.65 -1.87,-0.77 -2.39,-2.19 -3.35,-3.849999 z"
     fill="#333333"
     id="path327" />
  <path
     d="m 2.1019885,103.49445 c 8.0999995,3.59 15.9899995,7.64 24.0299995,11.37 3.32,1.68 6.51,2.41 8.24,6.11 -5.55,-1.81 -10.77,-4.82 -16.09,-7.26 -5.1,-2.54 -10.3999995,-4.77 -15.3799995,-7.55 l -0.2,-0.61 c -0.21,-0.68 -0.4,-1.37 -0.6,-2.06 z"
     fill="#333333"
     id="path329" />
  <path
     d="m 69.031988,104.04445 c 8.02,3.47 15.76,7.6 23.72,11.21 3.31,1.78 6.61,2.26 8.080002,6.15 -4.760002,-1.7 -9.280002,-4.13 -13.910002,-6.32 -5.96,-2.92 -12.01,-5.66 -17.93,-8.66 -0.01,-0.79 0.01,-1.58 0.04,-2.38 z"
     fill="#333333"
     id="path331" />
  <path
     d="m 2.6119885,108.98445 c 10.3799995,4.66 20.5499995,9.87 30.8599995,14.72 0.02,0.87 0.03,1.74 0.05,2.61 -10.33,-5.08 -20.84,-9.83 -31.0899995,-15.06 0.04,-0.76 0.1,-1.51 0.18,-2.27 z"
     fill="#333333"
     id="path333" />
  <path
     d="m 69.061988,109.31445 c 8.16,3.56 16.06,7.74 24.17,11.43 3.14,1.64 6.19,2.25 7.610002,5.91 -5.310002,-1.86 -10.340002,-4.67 -15.460002,-7.04 -5.46,-2.69 -11.06,-5.13 -16.43,-7.99 0.02,-0.77 0.06,-1.54 0.11,-2.31 z"
     fill="#333333"
     id="path335" />
  <path
     d="m 1.5619885,114.22445 c 1.34,0.42 2.67,0.86 3.98,1.34 9.3699995,4.44 18.7099995,8.95 28.0299995,13.49 -0.04,0.83 -0.07,1.66 -0.11,2.5 -7.66,-3.68 -15.3,-7.4 -22.98,-11.02 -3.4999995,-1.72 -6.8799995,-2.64 -8.9199995,-6.31 z"
     fill="#333333"
     id="path337" />
  <path
     d="m 68.521988,114.30445 c 10.57,4.86 21.02,10 31.500002,15.05 -0.02,0.85 -0.05,1.69 -0.07,2.54 -10.1,-4.93 -20.31,-9.65 -30.36,-14.66 -0.37,-0.97 -0.73,-1.95 -1.07,-2.93 z"
     fill="#333333"
     id="path339" />
  <path
     d="m 2.5719885,119.40445 c 9.2599995,4.39 18.4799995,8.86 27.7299995,13.28 2.03,0.85 2.96,2.34 4.17,4.1 -3.23,-1.03 -6.3,-2.43 -9.32,-3.94 -7.54,-3.71 -15.1799995,-7.22 -22.6899995,-11 0.04,-0.81 0.07,-1.62 0.11,-2.44 z"
     fill="#333333"
     id="path341" />
  <path
     d="m 68.201988,119.57445 c 10.75,4.56 21.12,10.04 31.71,14.95 0.04,0.88 0.08,1.76 0.120002,2.64 -9.490002,-4.59 -19.060002,-9.1 -28.540002,-13.69 -1.86,-0.79 -2.34,-2.23 -3.29,-3.9 z"
     fill="#333333"
     id="path343" />
  <path
     d="m 2.6519885,124.94445 c 10.4299995,4.37 20.4999995,9.82 30.8199995,14.52 0.02,0.87 0.05,1.75 0.08,2.62 -10.36,-5.06 -20.87,-9.84 -31.1299995,-15.08 0.06,-0.69 0.14,-1.38 0.23,-2.06 z"
     fill="#333333"
     id="path345" />
  <path
     d="m 69.041988,125.04445 c 9.31,4.23 18.45,8.88 27.74,13.18 2.24,0.98 2.93,2.13 4.070002,4.27 -5.250002,-1.93 -10.260002,-4.68 -15.340002,-7.05 -5.49,-2.7 -11.12,-5.16 -16.53,-8.03 0,-0.79 0.02,-1.58 0.06,-2.37 z"
     fill="#333333"
     id="path347" />
  <path
     d="m 69.161988,130.41445 c 10.37,4.66 20.56,9.83 30.850002,14.7 0,0.86 0,1.73 0,2.6 -10.320002,-5.12 -20.870002,-9.83 -31.120002,-15.09 0.07,-0.74 0.16,-1.48 0.27,-2.21 z"
     fill="#333333"
     id="path349" />
  <path
     d="m 1.5919885,129.98445 c 4.56,1.34 8.5799995,3.56 12.8399995,5.59 6.34,3.05 12.67,6.12 19.03,9.12 0.02,0.87 0.04,1.74 0.06,2.61 -9.22,-4.37 -18.4,-8.82 -27.6199995,-13.19 -2.18,-0.99 -3.01,-2.06 -4.31,-4.13 z"
     fill="#333333"
     id="path351" />
  <path
     d="m 1.5119885,135.25445 c 1.36,0.42 2.71,0.86 4.04,1.34 8.3099995,3.95 16.5999995,7.97 24.9099995,11.93 2.04,0.85 2.87,2.23 3.95,4.05 -7.79,-2.77 -15.05,-7 -22.59,-10.37 -3.9399995,-2.05 -7.8999995,-2.9 -10.3099995,-6.95 z"
     fill="#333333"
     id="path353" />
  <path
     d="m 68.511988,135.41445 c 10.62,4.69 20.96,10.04 31.490002,14.92 0,0.87 0.01,1.75 0.01,2.63 -10.130002,-4.93 -20.370002,-9.66 -30.440002,-14.7 -0.36,-0.94 -0.72,-1.89 -1.06,-2.85 z"
     fill="#333333"
     id="path355" />
  <path
     d="m 2.1119885,140.38445 c 7.9299995,3.41 15.5999995,7.42 23.4399995,11.05 3.5,1.74 6.9,2.67 8.94,6.34 -5.55,-1.65 -10.8,-4.73 -16.08,-7.16 -5.19,-2.57 -10.5599995,-4.83 -15.5899995,-7.68 -0.25,-0.85 -0.48,-1.7 -0.71,-2.55 z"
     fill="#333333"
     id="path357" />
  <path
     d="m 68.971988,140.76445 c 10.33,4.86 20.57,9.94 30.93,14.75 0.05,0.9 0.100002,1.81 0.150002,2.72 -10.350002,-4.85 -20.570002,-9.96 -30.930002,-14.76 -0.05,-0.9 -0.1,-1.8 -0.15,-2.71 z"
     fill="#333333"
     id="path359" />
  <path
     d="m 2.6619885,145.93445 c 7.7199995,3.17 15.0899995,7.25 22.6999995,10.67 3.58,1.85 7.08,2.55 9.07,6.43 -5.11,-1.53 -9.96,-4.32 -14.85,-6.59 -5.71,-2.81 -11.5299995,-5.4 -17.1799995,-8.32 0.07,-0.73 0.16,-1.46 0.26,-2.19 z"
     fill="#333333"
     id="path361" />
  <path
     d="m 69.061988,146.18445 c 9.31,4.13 18.39,8.82 27.64,13.11 2.38,1.07 2.93,1.9 4.140002,4.24 -4.660002,-1.61 -8.820002,-3.91 -13.350002,-6.04 -6.15,-3.03 -12.44,-5.82 -18.53,-8.97 0.01,-0.78 0.04,-1.56 0.1,-2.34 z"
     fill="#333333"
     id="path363" />
  <path
     d="m 69.081988,151.44445 c 10.39,4.73 20.64,9.85 30.950002,14.77 -0.03,0.85 -0.05,1.7 -0.07,2.54 -10.31,-5.06 -20.8,-9.8 -31.03,-15.02 0.03,-0.77 0.08,-1.53 0.15,-2.29 z"
     fill="#333333"
     id="path365" />
  <path
     d="m 1.7719885,150.93445 c 10.7999995,4.41 21.1699995,9.95 31.7299995,14.92 -0.01,0.85 -0.02,1.7 -0.04,2.56 -9.9,-4.86 -19.91,-9.51 -29.8099995,-14.37 -0.65,-1.02 -1.27,-2.06 -1.88,-3.11 z"
     fill="#333333"
     id="path367" />
  <path
     d="m 1.5519885,156.22445 c 1.31,0.44 2.61,0.91 3.91,1.41 8.1299995,3.79 16.1599995,7.81 24.3099995,11.6 2.33,0.99 3.37,2.29 4.68,4.44 -7.81,-2.82 -15.11,-7.03 -22.68,-10.43 -3.9599995,-2.12 -7.9199995,-2.76 -10.2199995,-7.02 z"
     fill="#333333"
     id="path369" />
  <path
     d="m 68.531988,156.42445 c 10.54,4.87 20.96,10.03 31.45,15.03 0.01,0.88 0.03,1.76 0.04,2.64 -10.090002,-5.02 -20.380002,-9.67 -30.450002,-14.73 -0.36,-0.98 -0.71,-1.95 -1.04,-2.94 z"
     fill="#333333"
     id="path371" />
  <path
     d="m 2.5719885,161.43445 c 9.1799995,4.53 18.4599995,8.89 27.6899995,13.32 2.02,0.87 3,2.33 4.2,4.11 -2.77,-0.89 -5.41,-2 -8.02,-3.29 -7.97,-3.93 -16.06,-7.64 -23.9999995,-11.65 0.05,-0.83 0.09,-1.66 0.13,-2.49 z"
     fill="#333333"
     id="path373" />
  <path
     d="m 69.031988,161.98445 c 9.16,4.02 18.06,8.69 27.17,12.84 2.63,1.21 3.33,1.88 4.610002,4.54 -10.760002,-4.56 -21.220002,-9.98 -31.770002,-15.02 -0.02,-0.78 -0.02,-1.57 -0.01,-2.36 z"
     fill="#333333"
     id="path375" />
  <path
     d="m 1.6319885,166.70445 c 10.3099995,4.03 20.0599995,9.52 30.1599995,14.07 -0.93,0.44 -1.86,0.88 -2.8,1.32 -7.83,-3.91 -15.8,-7.57 -23.6599995,-11.42 -1.92,-0.81 -2.63,-2.27 -3.7,-3.97 z"
     fill="#333333"
     id="path377" />
  <path
     d="m 66.771988,167.03445 c -0.04,9.24 0,18.48 -0.02,27.73 -9.8,-4.62 -19.57,-9.33 -29.36,-13.97 9.8,-4.58 19.61,-9.12 29.38,-13.76 z"
     fill="#333333"
     id="path379" />
  <path
     d="m 69.101988,167.30445 c 9.84,4.32 19.43,9.27 29.17,13.83 -0.96,0.44 -1.93,0.87 -2.9,1.31 -8.72,-4.49 -17.74,-8.38 -26.44,-12.9 0.04,-0.75 0.09,-1.5 0.17,-2.24 z"
     fill="#333333"
     id="path381" />
  <path
     d="m 1.5219885,172.16445 c 1.37,0.41 2.74,0.86 4.09,1.34 6.9399995,3.27 13.8499995,6.61 20.7399995,10 -1.04,0.36 -2.08,0.73 -3.11,1.09 -5.54,-2.8 -11.18,-5.38 -16.7799995,-8.06 -2.33,-1.03 -3.51,-2.24 -4.94,-4.37 z"
     fill="#333333"
     id="path383" />
  <path
     d="m 68.511988,172.30445 c 8.19,3.54 16.11,7.68 24.21,11.42 -0.9,0.46 -1.8,0.92 -2.7,1.38 -6.75,-3.44 -13.7,-6.48 -20.44,-9.94 -0.37,-0.95 -0.73,-1.9 -1.07,-2.86 z"
     fill="#333333"
     id="path385" />
  <path
     d="m 1.5519885,177.36445 c 1.29,0.41 2.58,0.86 3.86,1.32 5.0699995,2.28 9.9999995,4.85 15.0499995,7.19 -0.83,0.48 -1.65,0.96 -2.48,1.45 -4.28,-2.22 -8.7299995,-4.08 -12.9999995,-6.31 -1.68,-0.78 -2.34,-2.24 -3.43,-3.65 z"
     fill="#333333"
     id="path387" />
  <path
     d="m 68.191988,177.59445 c 6.57,2.46 12.77,5.91 19.16,8.83 -1.04,0.39 -2.08,0.77 -3.11,1.16 -4.41,-2.29 -9.03,-4.16 -13.39,-6.53 -1.46,-0.74 -1.76,-2.13 -2.66,-3.46 z"
     fill="#333333"
     id="path389" />
  <path
     d="m 37.511988,183.49445 c 9.75,4.69 19.52,9.38 29.24,14.09 -0.01,0.86 -0.03,1.71 -0.04,2.57 -11.69,-5.81 -23.72,-11.05 -35.24,-17.19 2.25,-0.35 3.95,-0.63 6.04,0.53 z"
     fill="#333333"
     id="path391" />
  <path
     d="m 1.5919885,182.53445 c 1.22,0.43 2.43,0.88 3.63,1.35 3.38,1.47 6.6499995,3.17 9.9799995,4.73 -1,0.4 -1.99,0.8 -2.99,1.19 -3.8799995,-2.19 -8.6499995,-2.9 -10.6199995,-7.27 z"
     fill="#333333"
     id="path393" />
  <path
     d="m 69.031988,183.05445 c 4.24,1.7 8.28,3.9 12.42,5.83 -0.82,0.47 -1.64,0.95 -2.46,1.43 -3.33,-1.65 -6.73,-3.16 -10.01,-4.89 0,-0.79 0.02,-1.58 0.05,-2.37 z"
     fill="#333333"
     id="path395" />
  <path
     d="m 102.25199,183.28445 c 9.34,4.55 18.79,8.91 28.06,13.59 -2.71,1.84 -5.89,3.19 -8.86,4.59 -6.41,3 -12.78,6.09 -19.19,9.1 0,-9.09 0.02,-18.18 -0.01,-27.28 z"
     fill="#333333"
     id="path397" />
  <path
     d="m 35.951988,188.02445 c 10.21,4.96 20.44,9.84 30.68,14.73 0.08,0.91 0.15,1.83 0.23,2.74 -13.52,-6.67 -27.33,-12.82 -40.71,-19.76 3.93,-1.35 6.4,0.75 9.8,2.29 z"
     fill="#333333"
     id="path399" />
  <path
     d="m 92.551988,186.10445 c 1.11,-0.23 2.21,-0.44 3.32,-0.64 1.39,0.5 2.77,1.05 4.150002,1.6 -0.01,0.93 -0.01,1.86 -0.02,2.79 -2.500002,-1.21 -5.000002,-2.43 -7.450002,-3.75 z"
     fill="#333333"
     id="path401" />
  <path
     d="m 23.401988,187.31445 c 14.47,6.9 28.91,13.86 43.36,20.8 0.01,0.87 0.02,1.74 0.03,2.61 -15.33,-7.4 -30.69,-14.72 -46.02,-22.11 0.87,-0.44 1.75,-0.87 2.63,-1.3 z"
     fill="#333333"
     id="path403" />
  <path
     d="m 2.6519885,187.93445 c 2.52,0.98 4.95,2.34 7.23,3.78 -3.17,0.4 -4.71,0.16 -7.5,-1.21 0.07,-0.86 0.16,-1.71 0.27,-2.57 z"
     fill="#333333"
     id="path405" />
  <path
     d="m 69.111988,188.28445 c 2.55,1.03 5.04,2.42 7.44,3.77 -3.18,0.67 -4.76,0.22 -7.66,-1.18 0.05,-0.87 0.12,-1.73 0.22,-2.59 z"
     fill="#333333"
     id="path407" />
  <path
     d="m 99.971988,192.46445 c 0.02,0.88 0.04,1.75 0.06,2.62 -4.370002,-2.07 -8.730002,-4.01 -12.930002,-6.43 5.04,-1.35 8.34,2.03 12.87,3.81 z"
     fill="#333333"
     id="path409" />
  <path
     d="m 17.911988,189.93445 c 16.27,7.79 32.51,15.66 48.81,23.39 0.03,0.88 0.06,1.76 0.09,2.64 -17.24,-8.22 -34.44,-16.53 -51.68,-24.77 0.93,-0.42 1.85,-0.84 2.78,-1.26 z"
     fill="#333333"
     id="path411" />
  <path
     d="m 84.411988,190.35445 c 4.57,2.21 9.3,4.17 13.74,6.62 1.51,0.75 1.77,2.1 2.680002,3.44 -6.550002,-2.42 -12.730002,-5.88 -19.070002,-8.8 0.88,-0.42 1.76,-0.84 2.65,-1.26 z"
     fill="#333333"
     id="path413" />
  <path
     d="m 9.3819885,193.46445 c 1.1699995,-0.23 2.3399995,-0.44 3.5099995,-0.64 17.95,8.5 35.84,17.26 53.81,25.73 0.04,0.89 0.08,1.77 0.12,2.65 -14.7,-6.93 -29.33,-14.03 -43.99,-21.05 -4.49,-2.2 -9.09,-4.25 -13.4499995,-6.69 z"
     fill="#333333"
     id="path415" />
  <path
     d="m 79.051988,193.15445 c 4.83,1.92 9.41,4.48 14.17,6.6 3.15,1.62 6.19,2.27 7.630002,5.9 -8.520002,-3.28 -16.610002,-7.74 -24.880002,-11.62 1.02,-0.31 2.05,-0.6 3.08,-0.88 z"
     fill="#333333"
     id="path417" />
  <path
     d="m 9.5519885,196.42445 c 19.0199995,9.14 38.0399995,18.35 57.0999995,27.38 0.06,0.88 0.12,1.76 0.18,2.65 -16.72,-8.05 -33.44,-16.09 -50.15,-24.13 -4.38,-2.1 -8.7799995,-4.09 -13.0099995,-6.5 2.1,-0.19 3.94,-0.44 5.88,0.6 z"
     fill="#333333"
     id="path419" />
  <path
     d="m 70.791988,196.59445 c 0.97,-0.33 1.94,-0.66 2.91,-0.98 7.75,3.88 15.62,7.51 23.41,11.29 1.84,0.81 2.72,2.08 3.810002,3.71 -4.250002,-1.41 -8.140002,-3.44 -12.160002,-5.37 -5.99,-2.87 -12.04,-5.65 -17.97,-8.65 z"
     fill="#333333"
     id="path421" />
  <path
     d="m 69.031988,198.73445 c 9.76,4.58 19.52,9.15 29.27,13.75 -9.77,4.61 -19.51,9.29 -29.28,13.9 -0.01,-9.22 -0.03,-18.43 0.01,-27.65 z"
     fill="#333333"
     id="path423" />
</svg>
